<svg xmlns="http://www.w3.org/2000/svg" viewBox="0 0 320 200">
  <defs><linearGradient id="sky" x1="0" y1="0" x2="0" y2="1"><stop offset="0" stop-color="#1f3a5f"/><stop offset="1" stop-color="#183254"/></linearGradient></defs>
  <rect width="320" height="200" fill="url(#sky)"/>
  <circle cx="272" cy="36" r="16" fill="#cfa762" opacity=".9"/>
  <rect y="162" width="320" height="38" fill="#e8dcc3"/>
  <!-- steam -->
  <path d="M96 52q6-8 0-16M110 56q6-8 0-16" stroke="#ddbe8a" stroke-width="4" fill="none" stroke-linecap="round" opacity=".8"/>
  <!-- truck -->
  <rect x="52" y="62" width="180" height="86" rx="10" fill="#fbfaf7"/>
  <rect x="232" y="88" width="42" height="60" rx="8" fill="#fbfaf7"/>
  <rect x="240" y="98" width="26" height="22" rx="4" fill="#24466e"/>
  <!-- awning -->
  <g>
    <rect x="62" y="58" width="130" height="12" rx="6" fill="#cfa762"/>
    <path d="M62 70h130v6q-8 10-16 0-8 10-16 0-8 10-17 0-8 10-16 0-8 10-16 0-8 10-17 0-8 10-16 0-8 10-16 0z" fill="#cfa762"/>
  </g>
  <!-- serving window + counter -->
  <rect x="76" y="86" width="100" height="38" rx="6" fill="#24466e"/>
  <rect x="70" y="122" width="112" height="8" rx="4" fill="#cfa762"/>
  <!-- burger in window -->
  <g transform="translate(126 106)">
    <ellipse cx="0" cy="-6" rx="16" ry="7" fill="#ddbe8a"/>
    <rect x="-16" y="-4" width="32" height="6" rx="3" fill="#b45309"/>
    <ellipse cx="0" cy="6" rx="16" ry="6" fill="#ddbe8a"/>
  </g>
  <!-- wheels -->
  <circle cx="92" cy="152" r="14" fill="#122744"/><circle cx="92" cy="152" r="6" fill="#ddbe8a"/>
  <circle cx="212" cy="152" r="14" fill="#122744"/><circle cx="212" cy="152" r="6" fill="#ddbe8a"/>
</svg>
