<svg xmlns="http://www.w3.org/2000/svg" viewBox="0 0 320 200">
  <defs><linearGradient id="sky" x1="0" y1="0" x2="0" y2="1"><stop offset="0" stop-color="#1f3a5f"/><stop offset="1" stop-color="#183254"/></linearGradient></defs>
  <rect width="320" height="200" fill="url(#sky)"/>
  <rect y="162" width="320" height="38" fill="#e8dcc3"/>
  <!-- flash burst -->
  <g stroke="#ddbe8a" stroke-width="4" stroke-linecap="round">
    <path d="M62 44l12 10M258 44l-12 10M160 24v14M100 28l8 12M220 28l-8 12"/>
  </g>
  <!-- camera -->
  <g>
    <rect x="84" y="66" width="152" height="88" rx="14" fill="#fbfaf7"/>
    <path d="M128 66l10-14h44l10 14z" fill="#fbfaf7"/>
    <rect x="94" y="76" width="30" height="14" rx="5" fill="#cfa762"/>
    <circle cx="214" cy="84" r="7" fill="#cfa762"/>
    <circle cx="160" cy="112" r="34" fill="#24466e"/>
    <circle cx="160" cy="112" r="24" fill="#183254"/>
    <circle cx="160" cy="112" r="24" fill="none" stroke="#cfa762" stroke-width="3"/>
    <circle cx="151" cy="103" r="6" fill="#ddbe8a" opacity=".9"/>
  </g>
  <!-- mic on side -->
  <g>
    <rect x="46" y="106" width="14" height="40" rx="7" fill="#cfa762"/>
    <rect x="50" y="146" width="6" height="16" fill="#ddbe8a"/>
  </g>
</svg>
