<svg xmlns="http://www.w3.org/2000/svg" viewBox="0 0 320 200">
  <defs><linearGradient id="sky" x1="0" y1="0" x2="0" y2="1"><stop offset="0" stop-color="#1f3a5f"/><stop offset="1" stop-color="#183254"/></linearGradient></defs>
  <rect width="320" height="200" fill="url(#sky)"/>
  <circle cx="270" cy="38" r="16" fill="#cfa762" opacity=".9"/>
  <rect y="162" width="320" height="38" fill="#e8dcc3"/>
  <!-- trophy -->
  <g transform="translate(160 58)">
    <path d="M-34 0h68v14q0 34-34 44-34-10-34-44z" fill="#cfa762"/>
    <path d="M-34 6h-16q-4 28 22 34M34 6h16q4 28-22 34" stroke="#cfa762" stroke-width="8" fill="none"/>
    <rect x="-8" y="56" width="16" height="18" fill="#cfa762"/>
    <rect x="-24" y="74" width="48" height="12" rx="4" fill="#ddbe8a"/>
    <path d="M0 12l5 11 12 2-9 8 2 12-10-6-10 6 2-12-9-8 12-2z" fill="#183254"/>
  </g>
  <!-- football -->
  <g transform="translate(84 132)">
    <circle r="22" fill="#fbfaf7"/>
    <path d="M0-9l9 6-4 11h-10l-4-11z" fill="#183254"/>
    <g stroke="#183254" stroke-width="2.5" fill="none"><path d="M0-9v-12M9-3l11-4M5 8l7 10M-5 8l-7 10M-9-3l-11-4"/></g>
  </g>
  <!-- volleyball -->
  <g transform="translate(238 132)">
    <circle r="22" fill="#fbfaf7"/>
    <g stroke="#cfa762" stroke-width="3" fill="none"><path d="M-22 0q22-10 44 0M-16-15q10 26 32 15M16-15q-10 26-32 15"/></g>
  </g>
  <!-- finish flags -->
  <g fill="#ddbe8a"><rect x="30" y="66" width="5" height="70" rx="2"/><path d="M35 66h32l-8 10 8 10H35z"/></g>
</svg>
